<svg xmlns="http://www.w3.org/2000/svg" xmlns:xlink="http://www.w3.org/1999/xlink" width="1200" height="1200" viewBox="0 0 1200 1200">
  <defs>
    <clipPath id="clip-YNOV_INFORMATIQUE">
      <rect width="1200" height="1200"/>
    </clipPath>
  </defs>
  <g id="YNOV_INFORMATIQUE" data-name="YNOV INFORMATIQUE" clip-path="url(#clip-YNOV_INFORMATIQUE)">
    <rect width="1200" height="1200" fill="#fff"/>
    <g id="Ynov_Info" data-name="Ynov Info" transform="translate(600.26 599.675)">
      <g id="Groupe_1" data-name="Groupe 1" transform="translate(-590.26 -234.675)">
        <path id="Tracé_1" data-name="Tracé 1" d="M184.909,269.395c75.359,0,136.369-60.243,136.369-134.667S260.151.06,184.909.06C109.55.06,48.54,60.42,48.54,134.727S109.55,269.395,184.909,269.395Zm0-205.224c39.429,0,71.392,31.645,71.392,70.557,0,39.029-31.963,70.557-71.392,70.557s-71.392-31.645-71.392-70.557C113.516,95.7,145.48,64.171,184.909,64.171Z" transform="translate(517.699 0.643)" fill="#00eaff"/>
        <path id="Tracé_2" data-name="Tracé 2" d="M23,270.038h64.86V138.3c0-39.967,31.963-72.432,71.392-72.432s71.392,32.466,71.392,72.432V270.038h64.86V138.3C295.507,61.884,234.5,0,159.139,0S22.77,61.884,22.77,138.3V270.038Z" transform="translate(242.852)" fill="#00eaff"/>
        <path id="Tracé_3" data-name="Tracé 3" d="M118.637,139.952a71.033,71.033,0,0,0-4.783-25.55L69.876.01H0L77.808,202.421C101.956,192.576,118.637,168.549,118.637,139.952Z" transform="translate(0 0.107)" fill="#00eaff"/>
        <path id="Tracé_4" data-name="Tracé 4" d="M149.726,269.931,253.431.01H183.555L79.85,269.931Z" transform="translate(851.634 0.107)" fill="#00eaff"/>
        <path id="Tracé_5" data-name="Tracé 5" d="M189.6,139.952a68.617,68.617,0,0,0-4.783-25.55L140.836.01H70.96l77.808,202.411C172.916,192.576,189.6,168.549,189.6,139.952Z" transform="translate(756.818 0.107)" fill="#00eaff"/>
        <path id="Tracé_6" data-name="Tracé 6" d="M174.242.01,3.11,445.5H72.986L244.118.01Z" transform="translate(33.169 0.107)" fill="#00eaff"/>
        <text id="INFORMATIQUE" transform="translate(263.52 440.35)" font-size="117" font-family="Montserrat-SemiBold, Montserrat" font-weight="600" letter-spacing="-0.035em"><tspan x="0" y="0">INFORMATIQUE</tspan></text>
      </g>
    </g>
  </g>
</svg>
